<svg xmlns="http://www.w3.org/2000/svg" width="270" height="412" viewBox="0 0 270 412">
  <defs>
    <style>
      .cls-1 {
        fill: #858585;
        fill-rule: evenodd;
      }
    </style>
  </defs>
  <path id="class_neutral.svg" class="cls-1" d="M374.882,461.989H139.125A17.049,17.049,0,0,1,122,445.016V66.97A17.049,17.049,0,0,1,139.125,50H374.882A17.05,17.05,0,0,1,392.006,66.97V445.016A17.05,17.05,0,0,1,374.882,461.989Zm5.367-384.863a17.053,17.053,0,0,0-17.127-16.973H150.885a17.052,17.052,0,0,0-17.126,16.973V434.86a17.052,17.052,0,0,0,17.126,16.973H363.122a17.053,17.053,0,0,0,17.127-16.973V77.126ZM360.51,402.063s7.516,3.133,7.516,18.514c0,10.034-8.912,20.087-22.733,20.087s-16.341-10.053-16.341-10.053c-3.95,8.616-8.779,11.011-30.037,11.011H215.1c-21.257,0-26.087-2.4-30.04-11.011,0,0-2.517,10.053-16.338,10.053s-22.732-10.053-22.732-20.087c0-15.381,7.516-18.514,7.516-18.514s-9.375-2.571-9.375-12.135V122.058c0-9.564,9.375-12.135,9.375-12.135s-7.516-3.133-7.516-18.513c0-10.035,8.911-20.088,22.732-20.088s16.338,10.053,16.338,10.053c3.953-8.616,8.783-11.01,30.04-11.01h83.82c21.258,0,26.087,2.395,30.037,11.01,0,0,2.521-10.053,16.341-10.053s22.733,10.053,22.733,20.088c0,15.38-7.516,18.513-7.516,18.513s9.374,2.571,9.374,12.135v267.87C369.884,399.492,360.51,402.063,360.51,402.063Zm-55.949-87.3A12.065,12.065,0,1,0,292.387,302.7,12.12,12.12,0,0,0,304.561,314.768Zm7.776-73.061-7.776-7.078s-1.316,1.58-9.681,3.534-19.46,3.544-19.46,3.544,11.094,1.586,19.46,3.537,9.681,3.535,9.681,3.535Zm-25.016,36.507,14.2,1.164-1.656-13.6s-3.9,1.282-13.392-5.7-13.832-9.318-13.832-9.318,2.355,4.3,9.4,13.706S287.321,278.214,287.321,278.214Zm-36.74,128.693c1.607,6.5,4.269,19.216,5.661,25.941,0.466,2.243.785,3.817,0.877,4.273l0-.009v0.009c0.092-.456.414-2.03,0.877-4.273,1.389-6.725,4.054-19.44,5.661-25.941,3.33-13.447,8.693-16.729,8.693-16.729l-15.231-20.717v0.006l0-.006L241.89,390.178S247.251,393.46,250.581,406.907Zm6.538-40.282a24.056,24.056,0,1,0-24.272-24.057A24.166,24.166,0,0,0,257.119,366.625Zm0-56.079a24.056,24.056,0,1,0-24.272-24.056A24.166,24.166,0,0,0,257.119,310.546Zm15.1-71.2a15.1,15.1,0,1,0-15.1,14.964A15.03,15.03,0,0,0,272.218,239.349Zm-39.984,25.117c7.05-9.406,9.4-13.706,9.4-13.706s-4.333,2.331-13.833,9.318-13.392,5.7-13.392,5.7l-1.653,13.6,14.2-1.164S225.184,273.875,232.234,264.466Zm6.624-22.759s-11.095-1.587-19.461-3.544-9.681-3.534-9.681-3.534l-7.776,7.078,7.776,7.072s1.316-1.575,9.681-3.535S238.858,241.707,238.858,241.707Zm-29.142,73.061A12.065,12.065,0,1,0,197.542,302.7,12.12,12.12,0,0,0,209.716,314.768Zm-33.277-94.745a24.056,24.056,0,1,0,24.271,24.054A24.166,24.166,0,0,0,176.439,220.023Zm33.277-25.287A12.065,12.065,0,1,0,221.89,206.8,12.122,12.122,0,0,0,209.716,194.736Zm53.763-88.526c-1.564-6.321-4.155-18.69-5.5-25.224-0.451-2.179-.76-3.708-0.852-4.151v0.006l0-.006c-0.089.444-.4,1.972-0.853,4.151-1.349,6.534-3.94,18.9-5.5,25.224-3.235,13.073-8.448,16.264-8.448,16.264l14.805,20.14,0,0v0l14.808-20.14S266.717,119.283,263.479,106.21Zm-6.36,38.869a23.995,23.995,0,0,0-.62,47.985c-0.27,1.006-.6,2.2-0.963,3.556-0.8,2.96-1.735,6.437-2.385,9.065-2.021,8.163-5.278,7.972-5.278,7.972l9.246,9.275v0l0,0,9.242-9.275s-3.253.191-5.274-7.972c-0.951-3.835-2.49-9.421-3.352-12.621A23.995,23.995,0,0,0,257.119,145.079Zm47.442,49.657A12.065,12.065,0,1,0,316.735,206.8,12.122,12.122,0,0,0,304.561,194.736Zm33.278,25.287a24.056,24.056,0,1,0,24.274,24.054A24.165,24.165,0,0,0,337.839,220.023Z" transform="translate(-122 -50)"/>
</svg>
