<svg xmlns="http://www.w3.org/2000/svg" width="374" height="280" viewBox="0 0 374 280">
  <defs>
    <style>
      .cls-1 {
        fill: #439159;
        fill-rule: evenodd;
      }
    </style>
  </defs>
  <path id="class_elf.svg" class="cls-1" d="M416.844,160.047c-32.052,18.664-46.544,49-71.337,79.7C299.3,296.979,227.554,313.844,177.7,304.087c-29.408-5.756-33.841-10.153-45.2-6.45-13.733,4.477-23.348,34.434-21.437,59.073,2.4,30.993-.522,39.759-8,39.281-19.046-1.217-21.479-21.34-17.373-44.286a152.443,152.443,0,0,1,36.193-74.046c17.563-19.854,60.194-56.617,100.635-79.795,34.439-19.738,72.554-35.65,77.7-37.693-12.526-1.658-53.762-1.276-98.041,22.868-38.017,20.729-67.334,55.861-68.271,56.389s-2.648-.592-1.954-2.421c47.4-124.935,171.914-125.317,230.283-118.913C419.084,125.588,458,151.182,458,151.182S436.643,148.519,416.844,160.047Z" transform="translate(-84 -116)"/>
</svg>
