<svg xmlns="http://www.w3.org/2000/svg" width="358" height="350" viewBox="0 0 358 350">
  <defs>
    <style>
      .cls-1 {
        fill: #797b1b;
        fill-rule: evenodd;
      }
    </style>
  </defs>
  <path id="class_royal.svg" class="cls-1" d="M432.231,187.087c-2.75-4.723-25.2-42.395-25.2-42.395s2.2,28.572,1.967,43.319S407.255,215.074,393.054,255s-35.714,60.77-57.067,60.715S296.2,289.25,288.15,265.127s-9.759-39.916-4.875-57.02a140.459,140.459,0,0,1,12.19-29.516s-12.746-13.8-25.562-49.77S256.013,80,256.013,80s-1.074,12.847-13.889,48.82-25.559,49.77-25.559,49.77a140.553,140.553,0,0,1,12.187,29.516c4.887,17.1,3.17,32.9-4.875,57.02S197.4,315.66,176.04,315.713,133.177,294.923,118.976,255s-15.721-52.241-15.951-66.987S105,144.692,105,144.692s-22.45,37.672-25.2,42.395-4.389,14.747-.381,19.587c0,0-1.592,33.756.134,94.24s24.371,106.428,24.371,106.428a13.093,13.093,0,0,0,1.179,9.239c2.622,5.254,5.661,5.12,5.661,5.12s0.052,3.741-.361,8.3c0,0,48.1-11.8,92.062-12.267a28.643,28.643,0,0,1,20.957-6.681c12.012,0.842,17.769,8.368,17.769,8.368H270.84s5.761-7.526,17.773-8.368a28.639,28.639,0,0,1,20.954,6.681C353.53,418.2,401.629,430,401.629,430c-0.414-4.557-.361-8.3-0.361-8.3s3.038,0.134,5.661-5.12a13.1,13.1,0,0,0,1.179-9.239s22.645-45.945,24.371-106.428,0.134-94.24.134-94.24C436.624,201.834,434.982,191.811,432.231,187.087ZM175.754,376.706c-1.982,5.542-2.82,22.017-2.82,22.017s-8.808-13.94-13.252-17.8-13.477-8.491-13.477-8.491,5.6-8.476,7.58-14.018,2.823-22.017,2.823-22.017,8.805,13.94,13.249,17.8,13.48,8.49,13.48,8.49S177.737,371.161,175.754,376.706Zm90.913-12.322c-4.257,6.23-10.651,26.384-10.651,26.384s-6.393-20.154-10.65-26.384-13.959-14.921-13.959-14.921,9.7-8.691,13.959-14.917,10.65-26.388,10.65-26.388,6.394,20.154,10.651,26.388,13.959,14.917,13.959,14.917S270.925,358.154,266.667,364.384Zm85.678,16.539c-4.442,3.86-13.249,17.8-13.249,17.8s-0.841-16.475-2.821-22.017-7.582-14.021-7.582-14.021,9.038-4.638,13.479-8.49,13.253-17.8,13.253-17.8,0.838,16.469,2.817,22.017,7.582,14.018,7.582,14.018S356.79,377.068,352.345,380.923Z" transform="translate(-77 -80)"/>
</svg>
