<svg xmlns="http://www.w3.org/2000/svg" width="412" height="412" viewBox="0 0 412 412">
  <defs>
    <style>
      .cls-1 {
        fill: #535fa3;
        fill-rule: evenodd;
      }
    </style>
  </defs>
  <path id="class_witch.svg" class="cls-1" d="M458.773,251.13c-17.448-17.452-34.856-34.943-52.4-52.3a9.836,9.836,0,0,1-3.28-7.765c0.14-25.375.076-50.754,0.076-76.132,0-4.979-.712-5.7-5.733-5.7q-38.664,0-77.325.043a7.017,7.017,0,0,1-5.493-2.257q-26.945-27.1-54.012-54.076c-3.928-3.925-5.868-3.934-9.763-.043q-27.021,27.018-54.015,54.074a7.021,7.021,0,0,1-5.472,2.308q-38.658-.119-77.324-0.046c-4.363,0-5.222.892-5.222,5.28,0,25.677-.037,51.357.055,77.034a7.285,7.285,0,0,1-2.336,5.737q-26.788,26.622-53.436,53.379c-4.087,4.087-4.1,5.957-.085,9.976q26.807,26.817,53.65,53.592a6.642,6.642,0,0,1,2.2,5.192c-0.08,25.979-.052,51.954-0.049,77.933,0,4.564.81,5.38,5.42,5.383q19.48,0.013,38.961,0c12.889,0,25.775.049,38.662-.042a6.98,6.98,0,0,1,5.5,2.232q26.939,27.109,54.009,54.079c3.94,3.941,5.877,3.956,9.759.076q26.918-26.913,53.8-53.866a7.664,7.664,0,0,1,5.984-2.54c25.675,0.1,51.35.067,77.026,0.058,4.348,0,5.237-.916,5.237-5.286q0.009-38.667-.039-77.332a6.647,6.647,0,0,1,2.107-5.232q26.793-26.616,53.445-53.37C463.06,257.147,463.078,255.436,458.773,251.13ZM255.614,82.817c15.947,15.951,32.067,32.075,47.928,47.943-31.68-11.757-63.908-11.781-95.978.119ZM338.6,221.778l4.348-48.391a119.5,119.5,0,0,1,32.975,79.567Zm37.323,37.26a119.528,119.528,0,0,1-32.975,79.549L338.6,290.212Zm-85.711-85.651-31.19-37.34a119.489,119.489,0,0,1,79.581,32.991ZM136.055,252.969a119.512,119.512,0,0,1,32.993-79.6l4.348,48.407ZM173.4,290.215l-4.348,48.391a119.532,119.532,0,0,1-32.99-79.58Zm-0.018-121.177a119.489,119.489,0,0,1,79.6-32.994l-31.19,37.343Zm8.005,86.62a74.614,74.614,0,0,1,149.226.53c-0.04,41.07-33.662,74.491-74.876,74.427C214.68,330.551,181.307,296.9,181.383,255.658Zm71.57,120.27A119.5,119.5,0,0,1,173.4,342.954l48.385-4.348Zm37.261-37.322,48.37,4.348a119.5,119.5,0,0,1-79.541,32.974ZM130.191,304.515C114.336,288.245,98.477,271.974,82.908,256c15.938-15.938,32.067-32.065,47.7-47.7-11.595,31.307-11.58,63.446.289,95.585C130.663,304.1,130.425,304.305,130.191,304.515Zm2.728-171.148h67.52a147.9,147.9,0,0,0-39.646,28.192,145.929,145.929,0,0,0-27.874,40.026V133.367Zm0.1,245.255V309.156c14.622,31.752,37.432,54.676,68.725,69.466H133.02ZM256.2,429.3q-24.235-24.246-48.821-48.835c32.862,12.162,65.717,11.946,98.311-.664Q280.932,404.568,256.2,429.3Zm122.765-50.778H308.752c32.6-14.909,55.626-38.187,70.215-70.8v70.8Zm0.042-174.775c-14.348-32.117-36.929-55.27-68.068-70.392h68.068v70.392Zm0.719,102.147q18.951-49.207.709-98.532,24.537,24.537,48.921,48.92Q404.671,280.968,379.728,305.894Z" transform="translate(-50 -50)"/>
</svg>
