<svg xmlns="http://www.w3.org/2000/svg" width="356" height="396" viewBox="0 0 356 396">
  <defs>
    <style>
      .cls-1 {
        fill: #a05a12;
        fill-rule: evenodd;
      }
    </style>
  </defs>
  <path id="class_dragon.svg" class="cls-1" d="M133.288,365.925c6.316-.075,10.762-4.269,7.945-9.96-5.058-10.217-24.2-17.126-42.819-10.522,15-21.938,26.12-32.424,67.853-41.13a9.258,9.258,0,0,0,6-12.609c-2.845-6.321-15.012-17.113-42.934-26.688,14.111-7.781,29.8-10.742,50.139-11.441-1.911-5.635-7.7-8.094-11.408-19.214-3.3-9.907-21.918-24.318-37.83-25.519,14.111-7.205,34.482-6.885,50.139,2.7,2.4-19.214-45.607-31.925-76.56-29.422,52.241-33.925,90.972-3.6,113.189-7.205-1.076-7.21-25.52-21.616-19.432-60.24,22.542,35.977,41.652,40.464,64.605,46.931a24.569,24.569,0,0,0,12.1,11.145c7.1,1.43,9.707-.467,9.858-7.75,0.12-5.742-.145-9.71-5.917-11.531-55.029-22.467-18.2-63.235-93.463-94.282,80.667-4.022,74.293,58.678,124.5,69.949,40.26,9.037,15.931,43.713,32.045,55.215h0c26.171,14.737,43.793,30.822,39.16,58.59-0.5,3.006-.942,6.067,1.674,7.629,9.553,5.706,13.428,10.57,20.337,18.326,1.913,2.146,5.148,3.858,12.32,1.809,3.074,10.246,12.3,24.59,17.563,27.3,6,9.585-4.892,40.2-24.735,44.42,3.449-23.691-6.148-23.565-11.747-20.383-5-9.584-24.115-19.575-27.189-19.575-4.283.266-8.52,10.192-11.271,18.442-1.024,1.025-3.378-1.967-5.123,10.246-1.024,7.172,8.183,14.583,19.468,19.467-39.883,5.113-33.38-19.253-39.066-38.045a2.249,2.249,0,0,0-1.719-1.523c-14.938-3.092-35.835-8.964-52.612-21.4,6.3-3.83,13.036-7.9,17.972-13.269-10.643-2.855-19.959-4.059-26.787-7.5,2.594-2.226,5.439-5.9,8.707-11.652-15.158,7.89-21.332,12.158-27.021,14.954,4.06,5.236,10.177,9.907,16.513,13.21-6,5.7-9.412,11.037-13.511,14.11,7.944,12.31,20.305,25.971,35.441,33.62-3.829,5.506-8.994,9.94-9.483,10.758,17.6,7.587,31.293,13.8,49.4,28.7-6.958,2.683-10.258,5.692-13.293,9.333,17.675,9.81,31.134,15.385,49,33.168C297.47,416.3,274.407,453.044,235.95,454.76,129.038,459.528,166.267,394.98,78,388.375,91.22,373.9,113.726,366.159,133.288,365.925Z" transform="translate(-78 -59)"/>
</svg>
