<svg xmlns="http://www.w3.org/2000/svg" width="360" height="416" viewBox="0 0 360 416">
  <defs>
    <style>
      .cls-1 {
        fill: #8d1e41;
        fill-rule: evenodd;
      }
    </style>
  </defs>
  <path id="class_nightmare.svg" class="cls-1" d="M434.925,159.89c-3.405,9.967-14.065,15.857-25.181,14.045-17.513-2.854-28.5-5.255-46.084-5.7,1.617,18.614-6.364,16.049,4.877,28.415,0.736,0.807.994,2.878,0.039,4.763-5.391,10.66-11.04,27.346-21.137,29.508-5.747,1.229-15.066-1-17.553,2.82-2.259,3.474-4.05,17.379-10.7,27.61-3,4.624-12.92,4.564-22.1,4.564S278,265.973,275,261.349c-6.649-10.231-8.443-24.136-10.7-27.61-2.487-3.819-11.806-1.591-17.553-2.82-10.1-2.162-15.749-18.848-21.137-29.508-0.955-1.885-.7-3.956.04-4.763,11.24-12.366,3.259-9.8,4.876-28.415-17.586.447-28.571,2.848-46.084,5.7-11.116,1.812-21.779-4.078-25.181-14.045-3.558-10.423,2.514-41.272,6.351-51.2,24.957-12.685,46.282-27.41,53.54-36.245,6.215-7.563,10.663-17.442.453-25.448,12.025,1.888,19.058,15.709,15.656,30.431-5.674,4.305-18.031,15.356-25.033,24.693-11.721,15.633-9.915,19.279-6.728,24.164,5.217,8.006,17.014,5.738,26.056,3.676,5.951-42.316,49.948-54.02,67.536-54.02s61.587,11.7,67.538,54.02c9.042,2.062,20.839,4.33,26.057-3.676,3.183-4.885,4.989-8.531-6.732-24.164-7-9.336-19.359-20.387-25.029-24.693-3.4-14.722,3.63-28.542,15.652-30.431-10.207,8.006-5.759,17.885.456,25.448,7.258,8.835,28.584,23.56,53.54,36.245C432.411,118.618,438.483,149.467,434.925,159.89Zm-184.141,20.7c-4.035,1.467-13,18.057-3.425,24.831,10.891,7.7,25.454,6.47,36.385-5.805C273.069,190.02,261.119,181.906,250.784,180.591Zm57.339,48.546c-0.934-4.436-3.938-8.516-6.908-12.145-1.463-1.785-3.625-6.782-4.123-6.782s-2.658,5-4.12,6.782C290,220.621,287,224.7,286.064,229.137c-1.159,5.51-.447,15.8-0.158,17.317,0.486,2.533,6.041,3.231,7.054,1.324,0.805-1.515,2.69-5.456,4.132-5.456s3.326,3.941,4.132,5.456c1.015,1.907,6.57,1.209,7.054-1.324C308.567,244.939,309.281,234.647,308.123,229.137ZM343.3,180.591c-10.334,1.315-22.187,9.429-32.859,19.026,10.931,12.275,25.5,13.507,36.386,5.805C356.405,198.648,347.336,182.058,343.3,180.591ZM121.909,235.3c15.91-10.416,46.391-15.816,66.73-5.763,34,16.806,40.977,51,95.105,61.062,60.878,11.317,113.7-43.012,98.371-99.372,49.172,28.335,55.937,126.545,8.337,193.367-42.788,60.068-127.253,97.571-224.9,68.224,41.571-7,65.675-25.458,77.721-54.559-35.082,12.554-78.337,8.325-97.6-6.17,46.183-9.659,65.489-40.614,54.447-67.362C187.836,294.98,122.754,288.562,76,325.94c8.167-39.87,47.187-68.262,95.887-65.846C165.366,241.881,143.153,232.306,121.909,235.3Z" transform="translate(-76 -47)"/>
</svg>
