<svg xmlns="http://www.w3.org/2000/svg" width="366" height="388" viewBox="0 0 366 388">
  <defs>
    <style>
      .cls-1 {
        fill: #b0a98d;
        fill-rule: evenodd;
      }
    </style>
  </defs>
  <path id="class_bishop.svg" class="cls-1" d="M211.965,73.317c-6.8,20.2-34.026,47.329-54.381,51.9-112.826,25.345-80.705,139.774-79.279,133.6,10.869-47.088,53.071-71.4,56.521-63.025,2.536,6.158-74.361,49.589-14.13,155.028-11.232-69.908,26.364-112.092,31.883-101.058,1.147,2.293-9.2,19.578-14.317,48.191-7.809,43.7-4.811,109.437,58.944,154.049-17.175-28.02-15.3-74.2-13.83-104.8,2.536-52.884,26.448-60.128,15.579-77.152-14.662-22.964-23.915-62.83-5.075-93.5-2.416,15.213-3.14,40.326,8.214,56.5,10.158,14.481,20.293,20.044,34.316,21.36-10.733-5.206-19.215-23.479-18.95-43.569,0.911-68.811,26.984-70.71,24.021-103.1C240.549,97.576,222.384,42.378,211.965,73.317Zm88.087,0c6.8,20.2,34.027,47.329,54.382,51.9,112.826,25.345,80.7,139.774,79.279,133.6-10.87-47.088-53.072-71.4-56.521-63.025-2.536,6.158,74.361,49.589,14.13,155.028,11.232-69.908-26.365-112.092-31.883-101.058-1.147,2.293,9.2,19.578,14.317,48.191,7.808,43.7,4.811,109.437-58.945,154.049,17.176-28.02,15.3-74.2,13.831-104.8-2.536-52.884-26.449-60.128-15.579-77.152,14.662-22.964,23.915-62.83,5.075-93.5,2.416,15.213,3.14,40.326-8.214,56.5-10.159,14.481-20.294,20.044-34.317,21.36,10.734-5.206,19.216-23.479,18.95-43.569-0.91-68.811-26.983-70.71-24.02-103.1C271.469,97.576,289.634,42.378,300.052,73.317Z" transform="translate(-73 -64)"/>
</svg>
