<svg xmlns="http://www.w3.org/2000/svg" width="390" height="444" viewBox="0 0 390 444">
  <defs>
    <style>
      .cls-1 {
        fill: #5bcce3;
        fill-rule: evenodd;
      }
    </style>
  </defs>
  <path id="class_nemesis.svg" class="cls-1" d="M379.838,167.7c-29.028-.5-46.66,17.727-46.66,17.727L310.6,149.145s48.249-33.287,94.571-3.379C450.3,174.911,451,223.262,451,223.262,445.3,194.166,417.314,168.349,379.838,167.7Zm-60.18,45.015s-24.11-22.926-56.31-26.08c2.856,4.91,9.837,14.777,26.7,32.081,26.6,27.293,43.094,35.88,43.094,35.88s-16.5,8.588-43.1,35.88c-17.915,18.383-24.678,28.373-27.189,32.941,32.377-3.035,56.8-26.115,56.8-26.115-25.426,63.592-48.689,91.572-57.081,100.31,22.952-2.292,35.893-15.741,35.893-15.741-4.664,8.553-8.816,16.442-12.526,23.719,20.552-.64,58.884-6.719,86.466-30.382,34.287-29.41,44.527-82.219,22.951-118.3-21.834-36.509-59.925-46.6-59.925-46.6s53.467,3.474,84.465,33.387c30.008,28.957,44.4,91.459-3.476,135.338-40.458,37.081-105.352,32.033-131.3,28.169-20.176,39.788-26.659,60.524-28.438,67.144-0.35,1.373-.684,2.669-0.684,2.669s-0.335-1.3-.685-2.669c-2.124-7.9-10.94-35.913-41.782-92.473,0,0,12.864,13.521,35.91,15.758-8.378-8.718-31.657-36.693-57.1-100.327,0,0,24.357,23.172,56.808,26.136-2.5-4.559-9.258-14.552-27.2-32.962-26.6-27.292-43.093-35.88-43.093-35.88s16.5-8.587,43.1-35.88c16.84-17.279,23.827-27.143,26.691-32.06-32.128,3.224-56.3,26.059-56.3,26.059,25.425-63.592,48.689-91.572,57.081-100.31-22.953,2.292-35.894,15.741-35.894,15.741,4.842-8.879,9.139-17.052,12.955-24.557-20.442.566-59.116,6.563-86.895,30.393-34.283,29.412-44.526,82.221-22.948,118.3,21.835,36.506,59.925,46.6,59.925,46.6s-53.467-3.474-84.467-33.387c-30-28.957-44.4-91.456,3.475-135.334,40.664-37.268,106.005-31.982,131.687-28.112,19.868-39.283,26.282-59.8,28.05-66.377C255.669,34.3,256,33,256,33s0.334,1.3.684,2.669c2.125,7.9,10.94,35.914,41.782,92.473,0,0-12.864-13.521-35.91-15.758C270.939,121.1,294.218,149.077,319.658,212.711Zm-63.653,2.235s-2,6.674-17.142,20.662-21.217,18.984-21.217,18.984,6.076,4.993,21.217,18.984S256,294.238,256,294.238s2-6.673,17.142-20.662,21.217-18.984,21.217-18.984-6.076-4.992-21.217-18.984S256.005,214.946,256.005,214.946ZM132.169,341.485c29.031,0.5,46.663-17.724,46.663-17.724l22.583,36.278s-48.248,33.287-94.573,3.377c-45.136-29.142-45.833-77.5-45.833-77.5C66.706,315.016,94.693,340.836,132.169,341.485Z" transform="translate(-61 -33)"/>
</svg>
